<svg xmlns="http://www.w3.org/2000/svg" xmlns:xlink="http://www.w3.org/1999/xlink" width="500" zoomAndPan="magnify" viewBox="0 0 375 374.999991" height="500" preserveAspectRatio="xMidYMid meet" version="1.0"><defs><g/></defs><g fill="#000000" fill-opacity="1"><g transform="translate(67.993958, 223.141578)"><g><path d="M 9.46875 0 L 9.46875 -81.015625 L 37.421875 -81.015625 L 37.421875 -72.484375 L 37.75 -72.484375 C 45.007812 -79.742188 52.742188 -83.375 60.953125 -83.375 C 66.847656 -83.375 72.375 -82.164062 77.53125 -79.75 C 82.695312 -77.332031 86.59375 -73.59375 89.21875 -68.53125 C 97.4375 -78.425781 106.390625 -83.375 116.078125 -83.375 C 124.703125 -83.375 132.117188 -80.953125 138.328125 -76.109375 C 144.546875 -71.273438 147.65625 -63.695312 147.65625 -53.375 L 147.65625 0 L 119.703125 0 L 119.703125 -45.796875 C 119.703125 -50.109375 118.515625 -53.710938 116.140625 -56.609375 C 113.773438 -59.503906 110.222656 -60.953125 105.484375 -60.953125 C 101.378906 -60.953125 98.25 -59.710938 96.09375 -57.234375 C 93.9375 -54.765625 92.753906 -51.796875 92.546875 -48.328125 L 92.546875 0 L 64.59375 0 L 64.59375 -45.796875 C 64.59375 -50.109375 63.40625 -53.710938 61.03125 -56.609375 C 58.664062 -59.503906 55.113281 -60.953125 50.375 -60.953125 C 46.0625 -60.953125 42.820312 -59.609375 40.65625 -56.921875 C 38.5 -54.242188 37.421875 -51.0625 37.421875 -47.375 L 37.421875 0 Z M 9.46875 0 "/></g></g></g><g fill="#000000" fill-opacity="1"><g transform="translate(210.879821, 223.141578)"><g><path d="M 91.4375 -36.640625 L 32.6875 -36.640625 C 32.6875 -30.953125 34.53125 -26.738281 38.21875 -24 C 41.90625 -21.257812 45.90625 -19.890625 50.21875 -19.890625 C 54.75 -19.890625 58.328125 -20.492188 60.953125 -21.703125 C 63.585938 -22.921875 66.585938 -25.320312 69.953125 -28.90625 L 90.171875 -18.796875 C 81.753906 -4.679688 67.753906 2.375 48.171875 2.375 C 35.953125 2.375 25.472656 -1.804688 16.734375 -10.171875 C 7.992188 -18.546875 3.625 -28.628906 3.625 -40.421875 C 3.625 -52.210938 7.992188 -62.316406 16.734375 -70.734375 C 25.472656 -79.160156 35.953125 -83.375 48.171875 -83.375 C 61.015625 -83.375 71.460938 -79.660156 79.515625 -72.234375 C 87.566406 -64.816406 91.59375 -54.210938 91.59375 -40.421875 C 91.59375 -38.523438 91.539062 -37.265625 91.4375 -36.640625 Z M 33.484375 -52.109375 L 64.28125 -52.109375 C 63.644531 -56.328125 61.984375 -59.566406 59.296875 -61.828125 C 56.609375 -64.085938 53.160156 -65.21875 48.953125 -65.21875 C 44.316406 -65.21875 40.628906 -64.003906 37.890625 -61.578125 C 35.160156 -59.160156 33.691406 -56.003906 33.484375 -52.109375 Z M 33.484375 -52.109375 "/></g></g></g><path stroke-linecap="butt" transform="matrix(2.21113, 0, 0, 2.21113, 31.290068, 268.176926)" fill="none" stroke-linejoin="miter" d="M -0.000454946 5.000815 L 84.433907 5.000815 " stroke="#292929" stroke-width="10" stroke-opacity="1" stroke-miterlimit="4"/><path stroke-linecap="butt" transform="matrix(0, 2.21113, -2.21113, 0, 53.390034, 101.328977)" fill="none" stroke-linejoin="miter" d="M -0.00038548 4.999298 L 82.464183 4.999298 " stroke="#292929" stroke-width="10" stroke-opacity="1" stroke-miterlimit="4"/><path stroke-linecap="butt" transform="matrix(-2.21113, 0, 0, -2.21113, 343.708782, 106.817249)" fill="none" stroke-linejoin="miter" d="M 0.000791758 4.999947 L 84.433387 4.999947 " stroke="#292929" stroke-width="10" stroke-opacity="1" stroke-miterlimit="4"/><path stroke-linecap="butt" transform="matrix(0, -2.21113, 2.21113, 0, 321.608772, 273.665226)" fill="none" stroke-linejoin="miter" d="M 0.000526215 4.999838 L 82.463328 4.999838 " stroke="#292929" stroke-width="10" stroke-opacity="1" stroke-miterlimit="4"/></svg>