<?xml version="1.0" encoding="UTF-8"?>
<svg xmlns="http://www.w3.org/2000/svg" version="1.1" viewBox="0 0 315 115">
  <defs>
    <style>
      .cls-1 {
        fill: none;
        stroke: #292929;
        stroke-width: 10px;
      }
    </style>
  </defs>
  <!-- Generator: Adobe Illustrator 28.6.0, SVG Export Plug-In . SVG Version: 1.2.0 Build 709)  -->
  <g>
    <g id="Layer_1">
      <g>
        <path d="M38.3,81.2v-36.6h12.6v3.9h.1c3.3-3.3,6.8-4.9,10.5-4.9s5.2.6,7.5,1.6c2.3,1.1,4.1,2.8,5.3,5.1,3.7-4.5,7.8-6.7,12.1-6.7s7.3,1.1,10.1,3.3c2.8,2.2,4.2,5.6,4.2,10.3v24.1h-12.6v-20.7c0-2-.5-3.6-1.6-4.9-1.1-1.3-2.7-2-4.8-2s-3.3.6-4.3,1.7c-1,1.1-1.5,2.5-1.6,4v21.9h-12.6v-20.7c0-2-.5-3.6-1.6-4.9-1.1-1.3-2.7-2-4.8-2s-3.4.6-4.4,1.8c-1,1.2-1.5,2.6-1.5,4.3v21.4h-12.6Z"/>
        <path d="M140,64.7h-26.6c0,2.6.8,4.5,2.5,5.7,1.7,1.2,3.5,1.9,5.4,1.9s3.7-.3,4.9-.8c1.2-.6,2.6-1.6,4.1-3.3l9.1,4.6c-3.8,6.4-10.1,9.6-19,9.6s-10.3-1.9-14.2-5.7c-3.9-3.8-5.9-8.4-5.9-13.7s2-9.9,5.9-13.7c4-3.8,8.7-5.7,14.2-5.7s10.5,1.7,14.2,5c3.6,3.3,5.5,8.1,5.5,14.4s0,1.4,0,1.7ZM113.8,57.7h13.9c-.3-1.9-1-3.4-2.3-4.4-1.2-1-2.8-1.5-4.7-1.5s-3.8.6-5,1.6c-1.2,1.1-1.9,2.5-2,4.3Z"/>
        <path d="M143.8,76.9c-4.1-3.6-6.1-8.3-6.1-13.9s2.1-10.3,6.4-14c4.2-3.7,9.5-5.5,15.7-5.5s11.3,1.8,15.5,5.5c4.2,3.7,6.3,8.3,6.3,13.9s-2.1,10.2-6.2,13.9c-4.1,3.6-9.3,5.5-15.7,5.5s-11.9-1.8-16-5.4ZM153.5,56.8c-1.6,1.6-2.5,3.7-2.5,6.2s.8,4.6,2.4,6.2c1.6,1.6,3.7,2.4,6.2,2.4s4.5-.8,6.1-2.4c1.6-1.6,2.4-3.7,2.4-6.2s-.8-4.6-2.5-6.2c-1.6-1.6-3.6-2.4-6-2.4s-4.5.8-6.1,2.4Z"/>
        <path d="M181.8,81.2v-36.6h12.6v3.9h.1c3.3-3.3,6.8-4.9,10.5-4.9s5.2.6,7.5,1.6c2.3,1.1,4.1,2.8,5.3,5.1,3.7-4.5,7.8-6.7,12.1-6.7s7.3,1.1,10.1,3.3c2.8,2.2,4.2,5.6,4.2,10.3v24.1h-12.6v-20.7c0-2-.5-3.6-1.6-4.9-1.1-1.3-2.7-2-4.8-2s-3.3.6-4.3,1.7c-1,1.1-1.5,2.5-1.6,4v21.9h-12.6v-20.7c0-2-.5-3.6-1.6-4.9-1.1-1.3-2.7-2-4.8-2s-3.4.6-4.4,1.8c-1,1.2-1.5,2.6-1.5,4.3v21.4h-12.6Z"/>
        <path d="M283.5,64.7h-26.6c0,2.6.8,4.5,2.5,5.7,1.7,1.2,3.5,1.9,5.4,1.9s3.7-.3,4.9-.8c1.2-.6,2.6-1.6,4.1-3.3l9.1,4.6c-3.8,6.4-10.1,9.6-19,9.6s-10.3-1.9-14.2-5.7c-3.9-3.8-5.9-8.4-5.9-13.7s2-9.9,5.9-13.7c4-3.8,8.7-5.7,14.2-5.7s10.5,1.7,14.2,5c3.6,3.3,5.5,8.1,5.5,14.4s0,1.4,0,1.7ZM257.3,57.7h13.9c-.3-1.9-1-3.4-2.3-4.4-1.2-1-2.8-1.5-4.7-1.5s-3.8.6-5,1.6c-1.2,1.1-1.9,2.5-2,4.3Z"/>
        <path class="cls-1" d="M10.6,102.8h84.4"/>
        <path class="cls-1" d="M15.5,22.3v82.5"/>
        <path class="cls-1" d="M304.4,12.2h-84.4"/>
        <path class="cls-1" d="M299.5,92.7V10.2"/>
      </g>
    </g>
  </g>
</svg>